<svg width="30" height="30" viewBox="0 0 30 30" fill="none" xmlns="http://www.w3.org/2000/svg">
<g id="person_24px">
<path id="icon/social/person_24px" fill-rule="evenodd" clip-rule="evenodd" d="M15 5C12.2375 5 10 7.2375 10 10C10 12.7625 12.2375 15 15 15C17.7625 15 20 12.7625 20 10C20 7.2375 17.7625 5 15 5ZM17.5 10C17.5 8.625 16.375 7.5 15 7.5C13.625 7.5 12.5 8.625 12.5 10C12.5 11.375 13.625 12.5 15 12.5C16.375 12.5 17.5 11.375 17.5 10ZM22.5 22.5C22.25 21.6125 18.375 20 15 20C11.6375 20 7.7875 21.6 7.5 22.5H22.5ZM5 22.5C5 19.175 11.6625 17.5 15 17.5C18.3375 17.5 25 19.175 25 22.5V25H5V22.5Z" fill="black"/>
</g>
</svg>
